<svg id="Ebene_1" data-name="Ebene 1" xmlns="http://www.w3.org/2000/svg" xmlns:xlink="http://www.w3.org/1999/xlink" viewBox="0 0 200 200"><defs><style>.cls-1{fill:url(#Unbenannter_Verlauf_111);}.cls-2{fill:#fff;}</style><linearGradient id="Unbenannter_Verlauf_111" y1="100" x2="200" y2="100" gradientUnits="userSpaceOnUse"><stop offset="0" stop-color="#f9782a"/><stop offset="0.02" stop-color="#f97c2b"/><stop offset="0.15" stop-color="#fa9834"/><stop offset="0.26" stop-color="#fbaa39"/><stop offset="0.35" stop-color="#fbb03b"/><stop offset="0.5" stop-color="#faa534"/><stop offset="0.77" stop-color="#f88622"/><stop offset="0.81" stop-color="#f7801e"/><stop offset="0.98" stop-color="#ed6200"/></linearGradient></defs><title>Twig-Icon_L02</title><rect class="cls-1" width="200" height="200" rx="8" ry="8"/><path class="cls-2" d="M180,48.64s-56.13-.79-77.48,28.47-9.88,47.83,0,57.71c0,0-7.91-32.41,32.41-56.13,0,0-26.09,25.3-27.67,56.13,0,0,26.88,18.19,43.49-15S159.44,60.5,180,48.64Z"/><path class="cls-2" d="M20,93.92s34.64-10.13,52.89,4.32S87.24,126.18,82.81,134c0,0-.67-21.44-29.73-29.21,0,0,20.51,11.19,26.79,30,0,0-13.52,15.89-29.52-1.83S34.77,97.74,20,93.92Z"/></svg>